<?xml version="1.0" standalone="no"?>
<!DOCTYPE svg PUBLIC "-//W3C//DTD SVG 20010904//EN"
 "http://www.w3.org/TR/2001/REC-SVG-20010904/DTD/svg10.dtd">
<svg version="1.0" xmlns="http://www.w3.org/2000/svg"
 width="800.000000pt" height="500.000000pt" viewBox="0 0 800.000000 500.000000"
 preserveAspectRatio="xMidYMid meet">
<metadata>
Created by potrace 1.15, written by Peter Selinger 2001-2017
</metadata>
<g transform="translate(0.000000,500.000000) scale(0.100000,-0.100000)"
fill="#000000" stroke="none">
<path d="M5445 4154 c-11 -2 -45 -9 -75 -15 -30 -6 -88 -26 -128 -45 -197 -90
-338 -245 -409 -449 -26 -75 -28 -91 -28 -240 0 -149 2 -165 28 -240 82 -234
266 -412 502 -485 145 -45 348 -36 501 21 193 72 388 288 445 492 33 116 33
307 1 423 -42 148 -128 273 -258 377 -40 31 -75 57 -78 57 -3 0 -6 -259 -6
-575 l0 -575 -75 0 -75 0 0 57 0 57 -32 -31 c-18 -18 -59 -44 -91 -58 -199
-92 -410 -9 -514 202 -37 76 -38 79 -38 192 0 95 4 129 24 189 46 140 133 223
271 258 122 31 248 1 339 -81 l41 -37 0 240 0 240 -47 12 c-49 12 -261 23
-298 14z"/>
<path d="M5424 3624 c-55 -19 -120 -86 -151 -152 -35 -76 -36 -198 0 -274 63
-140 187 -203 322 -163 69 20 138 83 174 160 31 66 34 176 7 255 -24 70 -111
160 -172 178 -54 16 -129 14 -180 -4z"/>
<path d="M2270 2427 l0 -303 -55 53 c-65 61 -138 92 -237 100 -217 18 -375
-96 -444 -322 -26 -83 -26 -295 0 -379 70 -235 236 -362 448 -342 112 10 204
60 276 148 l32 41 0 -87 0 -86 120 0 120 0 0 740 0 740 -130 0 -130 0 0 -303z
m-187 -358 c50 -14 113 -71 143 -131 49 -97 48 -262 -2 -365 -56 -116 -183
-164 -291 -112 -98 47 -149 165 -141 323 8 140 53 227 141 271 55 27 91 31
150 14z"/>
<path d="M3025 2268 c-126 -24 -257 -125 -316 -243 -73 -150 -76 -363 -5 -530
46 -108 158 -205 285 -246 55 -19 89 -22 206 -22 133 1 159 4 283 39 l52 15 0
105 0 104 -67 -26 c-202 -78 -390 -55 -487 58 -30 35 -66 116 -66 150 0 4 158
8 350 8 l350 0 0 98 c0 172 -47 299 -142 388 -104 97 -268 136 -443 102z m211
-189 c23 -11 55 -36 70 -56 25 -33 64 -136 64 -169 0 -12 -39 -14 -231 -14
l-231 0 7 33 c20 98 84 188 155 216 43 17 121 13 166 -10z"/>
<path d="M4180 2265 c-76 -22 -130 -56 -184 -116 l-46 -51 0 76 0 76 -120 0
-120 0 0 -705 0 -705 130 0 130 0 0 270 0 269 46 -45 c25 -25 71 -58 102 -72
51 -24 68 -27 172 -27 110 0 118 1 182 33 116 57 208 182 239 327 18 85 16
266 -4 343 -39 147 -118 250 -233 304 -81 38 -205 47 -294 23z m123 -209 c85
-36 138 -135 145 -272 11 -220 -90 -354 -257 -342 -105 7 -177 79 -207 207
-42 178 25 363 148 407 45 17 132 17 171 0z"/>
<path d="M5043 2265 c-83 -18 -156 -59 -204 -113 -45 -52 -59 -93 -59 -181 0
-124 44 -176 237 -280 136 -73 168 -96 195 -139 17 -28 18 -37 8 -62 -10 -25
-23 -33 -69 -47 -89 -26 -181 -17 -303 30 l-68 26 -4 -22 c-3 -12 -7 -59 -9
-104 l-5 -83 41 -11 c23 -5 58 -14 77 -20 64 -17 252 -23 325 -10 191 33 297
140 297 300 0 140 -60 208 -275 314 -172 85 -212 127 -172 184 20 29 110 47
184 38 30 -4 87 -20 126 -35 l70 -28 7 24 c3 13 8 58 10 100 l3 77 -85 24
c-109 30 -245 37 -327 18z"/>
<path d="M5945 2270 c-38 -4 -109 -20 -157 -34 l-88 -27 0 -95 c0 -57 4 -94
10 -94 6 0 38 12 73 26 126 52 267 60 345 20 28 -14 92 -79 92 -94 1 -4 4 -26
9 -48 l8 -41 -156 -6 c-226 -9 -326 -36 -410 -113 -62 -55 -84 -104 -89 -199
-2 -44 1 -99 7 -122 65 -241 416 -299 611 -101 l50 51 0 -72 0 -71 120 0 120
0 0 313 c0 171 -5 342 -10 379 -24 162 -97 265 -220 307 -74 25 -207 34 -315
21z m290 -597 c-13 -102 -27 -136 -79 -189 -44 -45 -59 -54 -110 -64 -126 -26
-220 47 -203 157 8 49 31 79 77 103 59 30 103 38 218 39 l103 1 -6 -47z"/>
</g>
</svg>
