<?xml version="1.0" standalone="no"?>
<!DOCTYPE svg PUBLIC "-//W3C//DTD SVG 20010904//EN"
 "http://www.w3.org/TR/2001/REC-SVG-20010904/DTD/svg10.dtd">
<svg version="1.0" xmlns="http://www.w3.org/2000/svg"
 width="800.000000pt" height="500.000000pt" viewBox="0 0 800.000000 500.000000"
 preserveAspectRatio="xMidYMid meet">
<metadata>
Created by potrace 1.15, written by Peter Selinger 2001-2017
</metadata>
<g transform="translate(0.000000,500.000000) scale(0.100000,-0.100000)"
fill="#000000" stroke="none">
<path d="M4640 4029 c-751 -32 -1600 -281 -2225 -653 -449 -268 -805 -612
-961 -930 -77 -157 -106 -277 -107 -436 -1 -147 16 -226 73 -345 173 -361 618
-600 1271 -682 187 -23 637 -23 847 0 604 68 1193 237 1692 487 543 272 982
646 1164 991 81 153 126 327 126 487 0 106 -15 100 -17 -7 -5 -286 -123 -522
-403 -802 -343 -344 -806 -612 -1400 -809 -956 -319 -1968 -331 -2605 -31
-305 144 -483 343 -526 586 -23 136 22 332 114 493 388 678 1564 1255 2761
1353 186 15 623 7 781 -15 340 -47 647 -151 845 -286 116 -79 215 -209 261
-342 30 -89 39 -72 14 26 -49 189 -231 384 -473 509 -271 140 -649 239 -1007
263 -162 11 -152 21 29 29 641 29 1191 -121 1492 -407 124 -118 198 -234 250
-391 21 -62 23 -66 19 -28 -26 208 -202 453 -443 614 -262 175 -719 305 -1136
322 -67 3 -152 7 -191 8 -38 2 -149 0 -245 -4z"/>
<path d="M4212 3640 c-104 -16 -172 -49 -239 -115 -70 -70 -89 -118 -121 -300
l-17 -100 -90 -3 -91 -3 -23 -122 c-13 -67 -26 -128 -28 -134 -4 -10 15 -13
76 -13 52 0 81 -4 81 -11 0 -16 -158 -844 -180 -946 -30 -137 -50 -123 173
-123 l193 0 17 103 c10 56 54 299 99 539 l82 438 160 2 161 3 27 125 c15 69
27 128 27 133 1 4 -76 7 -169 7 l-171 0 6 38 c23 138 61 192 153 218 47 14 69
15 133 6 42 -6 96 -18 120 -26 24 -8 44 -14 45 -13 4 5 24 260 21 264 -2 2
-40 10 -83 19 -96 18 -289 26 -362 14z"/>
<path d="M2790 3131 c-218 -46 -380 -162 -494 -350 -168 -280 -191 -616 -55
-820 69 -103 163 -164 307 -198 158 -37 695 -14 730 31 5 6 25 65 45 132 20
66 39 128 42 136 5 13 -12 10 -92 -12 -132 -37 -270 -60 -364 -60 -180 0 -322
87 -359 219 -11 39 -12 158 -1 206 l6 30 490 5 490 5 13 50 c20 81 26 207 13
277 -38 195 -158 311 -363 352 -105 22 -298 20 -408 -3z m306 -237 c57 -28
101 -92 109 -159 4 -30 4 -71 1 -90 l-7 -35 -304 0 -305 0 25 57 c51 115 135
195 247 235 67 24 177 20 234 -8z"/>
<path d="M5028 3140 c-162 -29 -274 -86 -384 -195 -157 -155 -249 -375 -261
-626 -15 -296 101 -478 352 -556 105 -32 554 -20 613 16 11 7 106 290 100 296
-2 2 -48 -8 -103 -23 -82 -22 -122 -26 -226 -27 -125 0 -127 0 -195 35 -122
62 -167 170 -144 343 52 381 320 542 719 432 52 -14 95 -24 97 -23 8 9 25 281
18 288 -5 4 -45 16 -89 25 -90 20 -418 30 -497 15z"/>
</g>
</svg>
