<?xml version="1.0" standalone="no"?>
<!DOCTYPE svg PUBLIC "-//W3C//DTD SVG 20010904//EN"
 "http://www.w3.org/TR/2001/REC-SVG-20010904/DTD/svg10.dtd">
<svg version="1.0" xmlns="http://www.w3.org/2000/svg"
 width="800.000000pt" height="500.000000pt" viewBox="0 0 800.000000 500.000000"
 preserveAspectRatio="xMidYMid meet">
<metadata>
Created by potrace 1.15, written by Peter Selinger 2001-2017
</metadata>
<g transform="translate(0.000000,500.000000) scale(0.100000,-0.100000)"
fill="#000000" stroke="none">
<path d="M2788 4494 c-94 -29 -199 -173 -234 -320 -23 -97 -14 -277 19 -404
94 -362 354 -803 801 -1360 130 -162 352 -414 487 -554 l108 -111 96 95 c245
241 664 742 892 1068 221 316 389 646 450 882 30 117 40 272 24 364 -32 181
-154 331 -287 351 -202 30 -538 -182 -1012 -640 l-142 -137 -157 152 c-358
347 -661 564 -858 615 -72 18 -125 18 -187 -1z m285 -167 c180 -91 464 -318
716 -571 l114 -114 -30 -39 c-134 -173 -177 -435 -107 -652 46 -143 125 -215
234 -215 64 1 101 18 151 71 76 79 111 192 111 354 -1 171 -43 305 -135 424
l-47 60 143 140 c154 151 383 347 512 440 117 83 270 156 345 162 53 5 64 3
99 -20 129 -85 177 -297 121 -522 -70 -279 -261 -631 -555 -1024 -218 -291
-450 -568 -681 -814 l-90 -96 -61 62 c-109 112 -322 357 -461 531 -526 656
-794 1165 -796 1511 0 121 17 186 73 273 55 84 88 104 169 100 52 -3 81 -13
175 -61z m1016 -903 c65 -131 78 -309 33 -436 -63 -176 -176 -182 -242 -13
-20 51 -24 78 -25 180 0 158 29 262 105 364 l33 45 33 -40 c19 -21 47 -66 63
-100z"/>
<path d="M2469 1105 c-1 0 -3 -9 -4 -20 -2 -18 -131 -314 -141 -324 -6 -6
-154 306 -154 324 0 12 -13 15 -60 15 -33 0 -60 -4 -60 -10 0 -5 6 -10 14 -10
37 0 37 -24 2 -216 -28 -150 -40 -192 -56 -206 -11 -9 -20 -19 -20 -22 0 -3
27 -6 60 -6 63 0 69 4 45 30 -13 14 -11 34 12 169 l27 153 85 -171 c47 -94 90
-171 96 -171 5 0 43 75 84 166 41 90 77 161 81 157 13 -14 51 -280 45 -306 -7
-25 -6 -25 54 -26 34 0 61 2 61 5 0 3 -9 13 -20 22 -17 14 -26 51 -50 192 -36
214 -37 226 -8 233 44 12 1 22 -93 22z"/>
<path d="M2921 1088 c-49 -125 -186 -417 -201 -430 -29 -24 -25 -28 31 -28 45
0 50 2 44 19 -3 10 2 37 11 60 l16 41 103 0 102 0 18 -39 c9 -21 14 -48 11
-59 -6 -19 -2 -20 54 -20 33 0 60 3 60 7 0 3 -10 16 -23 28 -12 12 -62 116
-111 232 -49 116 -93 211 -97 211 -5 0 -13 -10 -18 -22z m68 -245 l21 -53 -85
0 -85 0 16 38 c8 20 27 66 42 102 l26 64 22 -49 c13 -28 32 -74 43 -102z"/>
<path d="M3280 1097 c0 -5 7 -15 15 -23 12 -13 15 -50 15 -208 0 -160 -3 -196
-15 -206 -27 -22 -16 -30 45 -30 57 0 79 13 45 26 -13 5 -15 38 -15 210 l0
204 26 6 c54 14 106 -36 106 -102 0 -48 -30 -87 -75 -98 -21 -5 -37 -13 -37
-17 0 -13 134 -177 164 -200 17 -13 48 -24 77 -27 56 -5 66 10 17 24 -25 7
-50 32 -100 98 -38 49 -68 91 -68 95 0 3 14 14 30 23 33 19 60 71 60 115 0 41
-36 92 -76 109 -38 16 -214 17 -214 1z"/>
<path d="M3690 1097 c0 -4 11 -18 24 -30 34 -31 190 -390 182 -420 -13 -50
-68 -130 -97 -140 -16 -6 -29 -15 -29 -21 0 -16 82 2 103 23 11 11 82 136 157
278 76 142 149 270 164 285 14 15 26 29 26 32 0 3 -27 6 -60 6 -64 0 -66 -1
-49 -28 8 -14 -6 -48 -76 -180 -48 -90 -88 -162 -90 -160 -9 11 -138 312 -138
321 0 7 3 19 7 27 5 13 -4 15 -59 15 -36 0 -65 -4 -65 -8z"/>
<path d="M5152 1094 c-5 -11 -44 -98 -87 -194 -112 -256 -103 -240 -136 -240
-28 0 -80 52 -203 202 l-38 48 67 75 c40 45 80 79 101 87 47 17 43 28 -11 28
-40 0 -49 -4 -78 -37 -17 -21 -58 -66 -91 -100 -32 -34 -56 -68 -53 -75 3 -7
46 -59 95 -114 106 -119 148 -144 240 -144 60 0 62 1 62 25 0 14 7 41 14 60
l15 35 104 0 104 0 14 -42 c7 -24 12 -51 11 -60 -3 -16 5 -18 57 -18 34 0 61
2 61 5 0 3 -11 16 -24 28 -15 13 -58 102 -111 227 -47 113 -90 209 -95 214 -4
4 -12 0 -18 -10z m78 -296 c0 -5 -36 -8 -80 -8 -44 0 -80 2 -80 4 0 2 14 36
31 77 17 41 35 85 41 99 9 23 13 17 49 -70 21 -52 39 -98 39 -102z"/>
<path d="M5400 1101 c0 -3 11 -16 25 -31 13 -14 62 -112 109 -218 l85 -192
-37 -67 c-26 -49 -46 -72 -69 -83 -42 -19 -42 -30 1 -30 60 0 85 34 226 301
74 139 146 267 162 285 15 17 28 34 28 38 0 3 -25 6 -56 6 -55 0 -56 0 -50
-26 5 -20 -11 -59 -76 -180 -45 -85 -85 -154 -88 -154 -13 0 -147 315 -139
325 21 22 7 30 -56 30 -36 0 -65 -2 -65 -4z"/>
<path d="M4520 1091 c0 -5 7 -11 15 -15 13 -4 15 -37 15 -204 0 -165 -3 -202
-15 -212 -26 -21 -17 -27 45 -27 61 -1 71 5 45 27 -12 10 -15 47 -15 212 0
167 2 200 15 204 33 13 12 24 -45 24 -33 0 -60 -4 -60 -9z"/>
</g>
</svg>
