<?xml version="1.0" standalone="no"?>
<!DOCTYPE svg PUBLIC "-//W3C//DTD SVG 20010904//EN"
 "http://www.w3.org/TR/2001/REC-SVG-20010904/DTD/svg10.dtd">
<svg version="1.0" xmlns="http://www.w3.org/2000/svg"
 width="800.000000pt" height="500.000000pt" viewBox="0 0 800.000000 500.000000"
 preserveAspectRatio="xMidYMid meet">
<metadata>
Created by potrace 1.15, written by Peter Selinger 2001-2017
</metadata>
<g transform="translate(0.000000,500.000000) scale(0.100000,-0.100000)"
fill="#000000" stroke="none">
<path d="M1443 3485 c-96 -30 -178 -101 -222 -195 -13 -28 -75 -308 -162 -735
-155 -758 -155 -762 -107 -866 52 -113 133 -169 243 -169 l61 0 145 688 145
687 264 3 c149 1 288 -2 319 -8 128 -23 236 -105 289 -218 24 -50 27 -70 27
-157 0 -87 -3 -107 -27 -157 -48 -104 -132 -176 -245 -213 -29 -9 -53 -20 -53
-24 0 -4 13 -14 28 -23 48 -28 77 -83 181 -333 l100 -240 193 0 c192 0 193 0
246 28 64 34 133 100 161 155 24 47 16 9 216 982 85 415 158 767 161 783 l6
27 -964 -1 c-770 0 -971 -3 -1005 -14z"/>
<path d="M1745 2498 c-21 -101 -40 -189 -43 -195 -7 -20 207 -17 279 3 170 48
237 236 117 327 -44 34 -102 46 -219 47 l-95 0 -39 -182z"/>
<path d="M4358 2318 c-13 -24 -111 -206 -218 -405 -107 -200 -197 -363 -200
-363 -4 0 -17 26 -30 58 -47 115 -107 237 -123 251 -16 12 -13 16 31 36 90 42
139 130 129 235 -9 108 -74 185 -177 210 -26 6 -115 10 -214 8 l-169 -3 -79
-405 c-43 -223 -78 -411 -78 -418 0 -10 22 -12 92 -10 l93 3 32 165 c18 91 32
167 33 169 1 8 87 -11 107 -25 26 -16 61 -84 118 -221 l38 -93 196 0 197 0 44
90 44 90 122 0 c136 0 134 2 134 -81 0 -20 3 -51 6 -68 l7 -31 93 0 c52 0 94
2 94 5 0 3 -22 191 -50 417 -27 227 -50 416 -50 421 0 4 -45 7 -99 7 l-99 0
-24 -42z m-634 -147 c34 -32 40 -65 20 -107 -22 -46 -72 -71 -162 -79 -84 -9
-79 -17 -57 106 22 120 14 112 99 107 61 -3 79 -8 100 -27z m731 -214 l7 -137
-87 0 c-66 0 -86 3 -82 13 3 6 35 79 73 161 79 173 77 174 89 -37z"/>
<path d="M5990 2344 c-114 -36 -190 -135 -190 -246 0 -101 26 -135 190 -250
78 -56 98 -85 86 -132 -18 -74 -139 -85 -263 -25 -37 18 -72 33 -77 33 -6 1
-18 -30 -28 -69 -17 -69 -17 -70 3 -87 68 -58 264 -85 375 -53 121 35 206 163
189 285 -11 78 -49 127 -163 205 -116 80 -131 99 -112 145 29 70 134 79 249
20 35 -17 64 -30 65 -28 2 2 8 30 15 63 7 33 14 67 17 76 5 18 -44 44 -121 65
-64 18 -177 17 -235 -2z"/>
<path d="M6723 2348 c-14 -19 -437 -810 -441 -825 -3 -10 20 -13 97 -13 l101
0 45 90 45 90 124 0 124 0 7 -67 c3 -38 7 -77 8 -88 2 -18 10 -20 100 -23 l98
-3 -6 33 c-8 47 -95 781 -95 801 0 15 -13 17 -99 17 -67 0 -102 -4 -108 -12z
m81 -420 l7 -108 -85 0 c-47 0 -86 3 -86 6 0 4 33 79 73 166 l72 160 6 -59 c4
-32 10 -106 13 -165z"/>
<path d="M4935 2338 c-7 -24 -155 -796 -155 -812 0 -15 12 -16 92 -14 l91 3
49 255 c27 140 51 261 54 269 3 8 72 -105 156 -257 l152 -272 87 0 c75 0 88 3
93 18 7 25 156 796 156 810 0 8 -28 12 -93 12 l-93 0 -49 -265 -49 -265 -33
58 c-18 31 -86 150 -150 265 l-118 207 -93 0 c-65 0 -94 -4 -97 -12z"/>
<path d="M1655 2068 c-4 -11 -115 -538 -115 -545 0 -2 130 -3 289 -3 l289 0
-78 195 c-105 263 -134 314 -190 343 -34 17 -61 22 -117 22 -50 0 -75 -4 -78
-12z"/>
</g>
</svg>
