<?xml version="1.0" standalone="no"?>
<!DOCTYPE svg PUBLIC "-//W3C//DTD SVG 20010904//EN"
 "http://www.w3.org/TR/2001/REC-SVG-20010904/DTD/svg10.dtd">
<svg version="1.0" xmlns="http://www.w3.org/2000/svg"
 width="800.000000pt" height="500.000000pt" viewBox="0 0 800.000000 500.000000"
 preserveAspectRatio="xMidYMid meet">
<metadata>
Created by potrace 1.15, written by Peter Selinger 2001-2017
</metadata>
<g transform="translate(0.000000,500.000000) scale(0.100000,-0.100000)"
fill="#000000" stroke="none">
<path d="M1298 3280 c-134 -24 -267 -93 -328 -170 -46 -58 -78 -137 -90 -219
-6 -41 -9 -75 -8 -76 2 -1 55 -10 118 -19 162 -24 147 -14 152 -110 8 -156 54
-193 283 -227 84 -12 166 -30 187 -41 46 -23 68 -62 68 -124 0 -40 -5 -51 -38
-84 -48 -48 -102 -64 -217 -65 -110 0 -169 20 -219 75 -31 34 -56 91 -56 128
0 9 -38 12 -156 12 l-157 0 7 -51 c26 -194 171 -347 387 -405 94 -25 298 -23
402 5 155 41 269 128 325 248 24 52 27 70 27 168 0 98 -3 116 -26 165 -45 96
-149 178 -265 209 -33 9 -508 81 -534 81 -12 0 9 91 31 138 53 108 211 151
344 93 51 -22 102 -81 111 -126 l6 -35 156 0 155 0 -6 54 c-16 156 -156 306
-337 361 -64 19 -253 28 -322 15z"/>
<path d="M2635 3276 c-130 -26 -226 -75 -298 -155 -53 -58 -87 -138 -100 -233
l-6 -38 160 0 c119 0 161 3 163 13 3 6 7 24 10 39 17 78 108 131 227 131 153
0 219 -64 219 -210 l0 -73 -216 0 c-165 0 -231 -4 -278 -16 -220 -57 -360
-243 -343 -458 8 -102 39 -176 102 -244 97 -105 205 -146 380 -145 129 0 205
22 298 83 l57 38 0 -49 0 -49 150 0 150 0 0 290 0 290 -145 0 -145 0 0 125 0
125 63 0 c87 0 136 16 178 59 79 79 71 185 -24 318 -42 59 -119 109 -213 139
-99 32 -281 41 -389 20z m372 -850 c-14 -139 -109 -231 -264 -257 -75 -12
-124 -4 -179 30 -33 20 -74 92 -74 130 0 38 30 89 65 111 50 31 102 38 289 39
l169 1 -6 -54z"/>
<path d="M4015 3275 c-222 -49 -371 -180 -438 -385 -14 -41 -28 -92 -31 -112
l-7 -38 108 0 107 0 -52 -26 c-144 -72 -194 -235 -129 -422 35 -102 81 -174
155 -243 226 -212 599 -213 823 -2 92 87 125 157 153 321 l6 32 -165 0 c-164
0 -165 0 -165 -22 0 -39 -46 -124 -81 -151 -49 -37 -86 -49 -156 -49 -109 -1
-211 73 -248 180 -39 116 -38 352 2 464 54 151 222 221 362 152 60 -30 105
-90 116 -155 l7 -39 162 0 163 0 -8 55 c-23 174 -123 311 -281 390 -125 61
-271 79 -403 50z"/>
<path d="M4800 3251 c0 -15 279 -723 294 -746 27 -40 72 -78 121 -101 43 -20
66 -24 159 -24 99 0 108 -1 101 -17 -52 -132 -245 -647 -245 -654 0 -5 77 -9
173 -9 l172 0 293 773 c161 424 292 775 292 780 0 4 -78 7 -173 7 l-172 0
-160 -421 c-87 -231 -162 -422 -165 -424 -3 -2 -80 186 -172 418 l-166 422
-176 3 c-109 1 -176 -1 -176 -7z"/>
<path d="M6569 3250 c-67 -11 -120 -42 -172 -100 -79 -88 -77 -71 -77 -692 l0
-548 165 0 166 0 -3 408 c-3 402 -3 407 -26 450 -34 64 -87 118 -145 146 l-51
26 367 0 367 0 0 160 0 160 -272 -1 c-150 -1 -294 -5 -319 -9z"/>
</g>
</svg>
