<?xml version="1.0" standalone="no"?>
<!DOCTYPE svg PUBLIC "-//W3C//DTD SVG 20010904//EN"
 "http://www.w3.org/TR/2001/REC-SVG-20010904/DTD/svg10.dtd">
<svg version="1.0" xmlns="http://www.w3.org/2000/svg"
 width="800.000000pt" height="500.000000pt" viewBox="0 0 800.000000 500.000000"
 preserveAspectRatio="xMidYMid meet">
<metadata>
Created by potrace 1.15, written by Peter Selinger 2001-2017
</metadata>
<g transform="translate(0.000000,500.000000) scale(0.100000,-0.100000)"
fill="#000000" stroke="none">
<path d="M3916 3901 c-437 -108 -521 -131 -527 -147 -5 -16 -58 -34 -278 -93
-149 -41 -271 -77 -271 -81 0 -10 105 -82 157 -109 23 -11 81 -33 130 -47 74
-22 109 -27 221 -28 118 -1 133 -3 138 -19 16 -50 112 -70 199 -43 38 12 42
11 74 -17 33 -28 38 -29 103 -25 37 3 68 2 68 -1 0 -4 -19 -16 -42 -27 -42
-19 -45 -19 -93 -2 -65 22 -166 22 -230 -1 -50 -18 -50 -18 -98 6 -71 35 -163
56 -216 49 -26 -3 -73 -23 -111 -45 -36 -22 -119 -69 -185 -106 -66 -37 -135
-76 -152 -87 -73 -44 -25 5 95 97 70 54 129 99 131 101 8 6 -125 151 -162 177
-49 33 -61 33 -159 3 l-78 -24 0 32 c-1 26 -14 43 -85 109 -97 90 -90 97 -100
-89 l-7 -112 33 -11 c88 -28 137 -31 220 -12 l81 19 30 -27 31 -28 -116 -94
c-64 -52 -116 -101 -116 -110 -2 -33 42 -140 69 -169 34 -36 67 -39 142 -10
29 11 56 16 60 12 3 -4 16 -72 27 -152 l21 -145 -150 -145 -150 -145 -29 -125
c-16 -69 -34 -151 -41 -182 -11 -56 -12 -58 -53 -68 -400 -101 -723 -231 -937
-375 -179 -121 -185 -138 -20 -55 465 233 1068 373 1910 442 197 16 888 16
1110 -1 804 -59 1477 -214 1927 -445 57 -29 103 -49 103 -45 0 22 -191 149
-328 218 -174 88 -453 188 -673 242 l-97 24 -6 44 c-3 24 -6 153 -6 287 l0
244 30 0 c29 0 30 2 30 45 0 109 -81 199 -230 256 -37 14 -56 16 -75 9 -14 -5
-25 -8 -25 -6 0 2 41 29 91 61 96 61 123 93 155 182 l18 52 33 -14 33 -14 0
75 c0 158 -56 331 -157 482 -32 48 -66 104 -77 125 -41 82 -66 89 -323 89
-188 0 -242 -4 -270 -20 -27 -15 -73 -80 -73 -104 0 -9 -10 -27 -23 -40 -12
-13 -34 -38 -48 -57 l-26 -33 14 73 c19 95 11 196 -20 258 -21 42 -26 46 -63
48 -21 1 -270 -56 -558 -126z m554 -7 c18 -53 6 -144 -40 -294 -38 -128 -78
-326 -67 -336 3 -3 19 18 36 48 l31 53 -6 -96 c-4 -53 -4 -117 0 -142 l7 -47
34 14 34 15 45 -67 c61 -92 101 -127 251 -222 72 -45 121 -79 110 -76 -29 8
-195 46 -202 46 -3 0 -3 -13 0 -29 13 -63 -46 -166 -126 -221 -20 -14 -37 -29
-37 -34 0 -4 -35 -58 -79 -120 -88 -125 -137 -206 -124 -206 4 0 42 9 83 20
111 29 116 28 145 -30 23 -45 24 -50 8 -50 -40 0 -63 13 -63 34 0 21 0 21 -18
-2 -17 -22 -20 -22 -169 -16 l-152 7 35 42 c22 27 34 53 34 72 0 88 86 303
174 437 26 38 44 71 42 74 -7 6 -207 -139 -213 -155 -7 -18 -77 -17 -165 3
-55 13 -80 25 -112 54 -129 117 -250 176 -319 154 -21 -6 -20 -8 12 -34 l33
-28 -29 -6 c-15 -3 -50 -8 -77 -12 -44 -6 -48 -5 -43 12 11 37 19 234 10 234
-5 0 -24 -48 -42 -107 -81 -267 -157 -358 -334 -402 -103 -26 -160 -60 -202
-124 -34 -51 -76 -180 -63 -192 4 -4 24 5 45 19 69 47 110 33 161 -56 19 -34
20 -38 4 -38 -9 0 -34 -3 -54 -6 l-38 -7 0 49 0 48 -29 -46 c-16 -26 -40 -52
-53 -59 -13 -7 -77 -14 -152 -17 l-129 -5 6 39 c3 22 12 81 18 132 13 92 13
93 58 134 25 23 96 90 157 148 l111 106 -22 159 c-26 188 -42 148 132 333
l115 122 56 0 c69 0 161 -23 271 -67 46 -18 86 -32 88 -29 2 2 -8 15 -22 29
-30 27 -27 32 34 46 51 11 148 -1 226 -28 53 -19 67 -17 45 5 -11 11 88 59
175 85 43 12 115 49 115 58 0 3 -47 4 -104 3 -100 -4 -103 -3 -109 19 -4 15 0
27 11 35 28 20 7 27 -48 15 -67 -15 -153 -14 -168 1 -9 9 -5 20 20 46 32 34
32 35 8 28 -193 -56 -247 -65 -267 -45 -9 9 2 21 43 47 50 34 73 61 39 48 -8
-3 -54 -13 -102 -22 -127 -24 -289 -15 -406 22 -48 15 -84 30 -80 34 5 4 96
31 204 60 l196 52 39 -25 c91 -61 216 -79 353 -53 47 8 89 20 94 25 5 5 -19
13 -60 20 -144 25 -315 84 -296 101 12 12 792 197 835 199 22 1 28 -5 38 -35z
m662 -79 c9 -4 13 -17 10 -40 -4 -31 -6 -34 -25 -24 -26 14 -94 5 -117 -16
-16 -15 -20 -15 -51 4 -38 23 -98 28 -117 9 -9 -9 -12 -3 -12 30 l0 42 149 0
c82 0 156 -2 163 -5z m-102 -182 l52 57 29 -23 c35 -27 119 -137 119 -155 0
-22 -37 -86 -65 -112 -24 -23 -26 -29 -20 -77 l6 -51 -47 -33 c-53 -36 -77
-32 -82 15 -3 24 -1 26 35 26 l38 0 -5 105 -5 105 27 5 c25 6 55 52 47 73 -2
6 -32 -1 -65 -15 l-62 -26 5 -98 6 -99 -59 0 -59 0 0 101 0 101 -57 23 -58 24
0 -25 c0 -28 32 -64 57 -64 14 0 15 -11 10 -105 l-7 -105 35 0 c30 0 35 -3 35
-23 0 -13 -9 -32 -20 -42 -19 -17 -21 -17 -65 19 -49 41 -50 43 -34 99 10 36
8 39 -25 71 -20 18 -43 50 -51 70 -15 36 -15 39 9 79 13 23 46 64 73 90 l48
49 52 -59 52 -58 51 58z m307 -48 c41 -69 80 -171 96 -248 13 -58 12 -64 -2
-60 -12 3 -22 -16 -44 -86 -19 -60 -39 -101 -60 -124 -18 -20 -104 -82 -192
-140 l-161 -104 -134 83 c-147 90 -177 118 -251 241 -37 60 -54 80 -65 76 -32
-12 6 188 55 292 36 76 87 145 106 145 20 0 20 -2 -20 -65 -20 -30 -38 -61
-41 -69 -9 -24 63 -113 107 -133 43 -19 43 -20 23 -119 -5 -29 -1 -34 68 -87
41 -31 78 -57 83 -57 5 0 23 13 40 30 l31 30 37 -31 c21 -17 44 -28 52 -25 8
3 44 27 80 53 l66 48 -6 71 -6 71 31 13 c39 16 113 113 106 138 -3 9 -22 41
-41 71 -27 40 -33 56 -23 62 13 8 20 1 65 -76z m-17 -830 c27 -14 66 -42 87
-62 l38 -38 -38 -3 c-27 -2 -45 3 -70 22 -41 32 -62 35 -47 7 15 -30 14 -31
-40 -31 -47 0 -52 2 -71 35 -18 30 -24 33 -40 24 -11 -5 -34 -9 -52 -7 -28 3
-19 8 63 39 52 21 101 37 108 38 7 1 35 -10 62 -24z m-362 -111 l122 -27 0
-252 0 -252 -77 -13 c-43 -7 -102 -9 -137 -5 l-61 6 0 289 c0 253 2 289 15
286 8 -3 70 -17 138 -32z m-945 -139 c30 -14 78 -31 106 -38 48 -11 51 -14 46
-37 -3 -14 -9 -60 -15 -102 -8 -65 -15 -84 -45 -123 -19 -26 -35 -51 -35 -56
0 -5 -49 -9 -110 -9 l-110 0 -26 53 c-83 163 -157 209 -257 158 -39 -20 -44
-16 -26 23 10 22 98 70 164 90 12 4 39 42 69 101 l50 94 67 -64 c39 -38 91
-76 122 -90z m1170 85 c25 -29 28 -30 116 -30 l90 0 3 -247 c2 -137 3 -249 3
-250 0 -1 -18 2 -40 7 -22 4 -84 16 -137 25 l-98 17 0 254 c0 243 1 254 19
254 11 0 31 -13 44 -30z m-463 -265 c0 -132 -4 -215 -10 -215 -5 0 -26 34 -46
75 -40 82 -81 125 -120 125 -13 0 -24 2 -24 4 0 20 177 222 198 226 1 0 2 -97
2 -215z m-1233 129 c-15 -14 -29 -42 -33 -61 -7 -35 1 -161 10 -170 3 -3 41 9
85 26 44 17 87 31 95 31 16 0 54 -46 80 -97 l17 -33 -200 0 -199 0 -16 113
c-9 61 -19 121 -21 132 -5 24 17 35 125 65 86 24 87 24 57 -6z m-251 -205 c11
-77 17 -142 13 -145 -4 -2 -28 33 -55 77 -50 86 -88 119 -138 119 l-30 0 29
30 c28 29 96 58 140 59 19 1 22 -11 41 -140z"/>
<path d="M1810 1492 c-41 -22 -80 -90 -80 -139 0 -45 21 -92 54 -123 25 -23
37 -25 152 -30 109 -5 127 -8 145 -27 27 -27 20 -65 -16 -81 -16 -8 -82 -12
-175 -12 l-150 0 0 -50 0 -50 196 0 c218 0 246 6 287 64 31 43 32 151 1 193
-36 50 -77 63 -195 63 -90 0 -110 3 -130 19 -20 16 -22 23 -14 47 l10 29 163
3 162 2 0 55 0 55 -188 0 c-162 0 -192 -2 -222 -18z"/>
<path d="M2320 1451 l0 -60 154 -3 c135 -3 157 -5 175 -22 12 -11 21 -29 21
-42 0 -22 -3 -22 -137 -26 -155 -4 -189 -15 -223 -71 -29 -46 -27 -133 3 -178
42 -64 66 -69 306 -69 l213 0 -3 198 c-4 193 -5 198 -31 243 -45 76 -70 83
-290 87 l-188 4 0 -61z m350 -306 l0 -45 -98 0 c-104 0 -122 7 -122 47 0 34
26 42 128 43 l92 0 0 -45z"/>
<path d="M2890 1246 l0 -266 75 0 75 0 0 200 0 200 74 0 c58 0 79 -4 97 -19
23 -19 24 -24 27 -200 l3 -181 75 0 74 0 0 188 c-1 194 -9 242 -47 284 -40 45
-69 51 -265 56 l-188 5 0 -267z"/>
<path d="M3440 1245 l0 -265 70 0 70 0 0 200 0 200 80 0 80 0 0 -200 0 -200
75 0 75 0 0 200 0 200 60 0 c98 0 100 -4 100 -220 l0 -180 75 0 75 0 0 200 c0
218 -3 231 -57 283 -43 40 -106 47 -425 47 l-278 0 0 -265z"/>
<path d="M4270 1450 l0 -60 141 0 c87 0 149 -4 162 -12 28 -14 46 -38 47 -60
0 -14 -18 -17 -144 -20 -156 -3 -173 -9 -219 -70 -52 -70 -22 -189 57 -227 39
-19 61 -21 249 -21 l207 0 0 193 c0 165 -3 198 -19 232 -41 90 -83 104 -308
105 l-173 0 0 -60z m350 -305 l0 -45 -105 0 c-104 0 -106 0 -117 26 -11 23
-10 29 11 45 19 16 40 19 117 19 l94 0 0 -45z"/>
<path d="M5035 1498 c-11 -6 -26 -18 -32 -26 -11 -14 -13 -13 -13 6 0 21 -4
22 -75 22 l-75 0 0 -260 0 -260 75 0 75 0 0 200 0 200 75 0 75 0 0 65 0 65
-42 0 c-24 0 -52 -6 -63 -12z"/>
<path d="M5910 1500 c-96 -16 -173 -68 -213 -144 -31 -58 -31 -193 0 -251 48
-91 120 -127 260 -133 212 -9 324 73 327 238 1 86 -19 150 -61 200 -43 50 -90
75 -168 89 -65 12 -79 12 -145 1z m124 -124 c75 -31 107 -136 67 -219 -49
-100 -180 -102 -242 -5 -29 48 -23 146 11 184 47 51 105 65 164 40z"/>
<path d="M5330 1491 c-113 -35 -172 -119 -173 -246 0 -83 29 -162 76 -201 58
-49 92 -57 260 -62 l157 -4 0 61 0 61 -110 0 c-122 0 -168 13 -195 53 -44 68
-36 136 21 186 35 31 35 31 154 31 l120 0 0 65 0 65 -142 -1 c-79 0 -154 -4
-168 -8z"/>
</g>
</svg>
