<?xml version="1.0" standalone="no"?>
<!DOCTYPE svg PUBLIC "-//W3C//DTD SVG 20010904//EN"
 "http://www.w3.org/TR/2001/REC-SVG-20010904/DTD/svg10.dtd">
<svg version="1.0" xmlns="http://www.w3.org/2000/svg"
 width="800.000000pt" height="500.000000pt" viewBox="0 0 800.000000 500.000000"
 preserveAspectRatio="xMidYMid meet">
<metadata>
Created by potrace 1.15, written by Peter Selinger 2001-2017
</metadata>
<g transform="translate(0.000000,500.000000) scale(0.100000,-0.100000)"
fill="#000000" stroke="none">
<path d="M1538 3409 c-80 -12 -231 -63 -305 -105 -210 -117 -380 -334 -445
-569 -18 -68 -22 -105 -22 -245 0 -151 3 -173 28 -255 94 -307 323 -537 631
-631 83 -26 103 -28 260 -28 156 0 177 2 258 27 319 98 557 342 638 655 26 98
35 274 20 371 -62 396 -367 708 -758 776 -92 16 -213 18 -305 4z m187 -133
c49 -12 48 -12 -80 -18 -85 -5 -168 -16 -240 -33 -108 -25 -275 -44 -275 -31
0 3 26 23 58 44 51 33 66 38 142 43 148 10 343 8 395 -5z m57 -256 c174 -30
190 -38 82 -39 -213 -2 -347 -25 -599 -103 -184 -56 -282 -73 -345 -59 -64 14
-66 21 -30 89 l31 59 107 6 c59 4 184 20 277 36 206 35 322 38 477 11z m208
-343 c150 -40 159 -46 64 -46 -117 -1 -276 -19 -371 -41 -45 -11 -191 -55
-325 -99 -310 -101 -429 -119 -531 -79 -33 13 -39 32 -35 127 l3 73 175 2
c153 3 194 7 325 35 253 54 308 61 460 56 107 -3 162 -9 235 -28z m-95 -424
l90 -17 -103 -13 c-79 -10 -159 -32 -340 -93 -266 -89 -389 -115 -500 -106
-111 9 -137 24 -172 98 -35 73 -38 93 -12 83 9 -4 85 -9 167 -12 159 -5 224 2
450 51 136 30 291 33 420 9z m-145 -380 l45 -6 -77 -14 c-42 -7 -131 -33 -198
-58 -122 -46 -260 -73 -303 -59 -20 6 -137 91 -137 98 0 2 51 4 113 4 69 0
156 8 227 21 169 30 203 31 330 14z"/>
<path d="M6885 2929 c-69 -20 -105 -83 -105 -184 l0 -65 -40 0 -40 0 0 -70 0
-70 40 0 40 0 0 -235 0 -235 80 0 80 0 0 235 0 235 75 0 75 0 0 70 0 70 -75 0
-75 0 0 50 c0 51 20 76 52 66 7 -2 32 -7 56 -10 l42 -6 0 74 0 73 -46 7 c-61
8 -122 6 -159 -5z"/>
<path d="M3275 2920 c-63 -13 -90 -26 -130 -62 -50 -43 -65 -82 -65 -166 0
-124 59 -195 206 -247 44 -15 99 -34 123 -43 24 -9 57 -27 73 -40 58 -49 23
-143 -59 -158 -79 -15 -205 20 -266 74 -22 19 -25 16 -70 -80 l-36 -78 42 -24
c81 -46 144 -61 262 -61 215 0 321 77 333 245 12 169 -68 258 -300 336 -117
39 -138 52 -138 89 0 72 151 72 323 0 15 -6 17 1 17 83 l0 90 -62 21 c-71 24
-193 35 -253 21z"/>
<path d="M5120 2500 l0 -430 80 0 79 0 3 125 3 126 105 -125 105 -126 103 0
c56 0 102 3 102 6 0 3 -62 77 -137 165 -76 88 -140 164 -142 170 -2 6 54 69
125 140 l129 129 -104 0 -104 0 -74 -71 -75 -71 -21 21 c-20 20 -22 34 -25
196 l-4 175 -74 0 -74 0 0 -430z"/>
<path d="M3802 2760 c-17 -27 -49 -62 -71 -77 -39 -27 -40 -30 -41 -85 l0 -58
40 0 40 0 0 -182 c0 -158 3 -189 19 -225 29 -63 90 -87 194 -76 l57 6 0 78 0
78 -52 -2 -53 -2 -3 168 -2 169 70 -4 70 -3 0 68 0 67 -70 0 -70 0 0 65 0 65
-49 0 c-47 0 -49 -1 -79 -50z"/>
<path d="M4782 2760 c-17 -27 -49 -62 -71 -77 -39 -27 -40 -30 -41 -85 l0 -58
39 0 39 0 4 -192 c2 -161 6 -198 21 -225 29 -54 98 -78 193 -67 l54 7 0 79 0
80 -40 -7 c-68 -11 -70 -5 -70 177 l0 160 70 -4 70 -3 0 68 0 67 -70 0 -70 0
0 65 0 65 -49 0 c-47 0 -49 -1 -79 -50z"/>
<path d="M7255 2757 c-17 -29 -47 -63 -67 -76 -37 -24 -38 -26 -38 -83 l0 -58
40 0 40 0 0 -187 c0 -159 3 -193 18 -222 30 -60 61 -75 151 -74 43 0 84 3 90
7 6 4 11 38 11 82 l0 75 -50 -7 c-47 -6 -50 -5 -60 20 -5 15 -10 93 -10 173
l0 145 75 -4 75 -3 0 67 0 68 -75 0 -75 0 0 65 0 65 -47 0 c-47 -1 -49 -2 -78
-53z"/>
<path d="M4285 2706 c-27 -7 -67 -20 -87 -29 l-38 -16 0 -75 c0 -42 4 -76 9
-76 5 0 34 11 64 25 31 14 78 28 105 32 91 10 132 -13 132 -76 l0 -38 -102 -6
c-123 -7 -166 -20 -217 -64 -31 -26 -42 -44 -50 -84 -26 -119 22 -214 123
-244 64 -19 149 -19 212 0 27 8 81 15 121 15 l72 0 -5 248 c-3 136 -7 257 -10
269 -7 35 -60 89 -106 108 -56 22 -161 28 -223 11z m193 -410 c9 -73 -51 -122
-140 -114 -75 8 -110 54 -75 102 18 24 99 46 162 43 47 -2 50 -4 53 -31z"/>
<path d="M6307 2705 c-31 -8 -71 -22 -87 -30 -29 -15 -30 -17 -30 -91 0 -69 2
-75 18 -69 145 62 227 71 268 30 19 -19 24 -34 22 -58 l-3 -32 -100 -7 c-158
-11 -231 -45 -261 -123 -22 -58 -15 -150 15 -199 45 -72 183 -105 309 -72 35
9 93 16 128 16 l64 0 0 248 c0 219 -3 252 -19 288 -42 92 -182 135 -324 99z
m193 -424 c0 -41 -4 -53 -26 -70 -32 -25 -82 -35 -129 -27 -44 9 -65 30 -65
66 0 49 61 76 173 79 l47 1 0 -49z"/>
<path d="M5920 2695 c-25 -8 -77 -15 -116 -15 l-71 0 -7 -61 c-3 -34 -6 -172
-6 -305 l0 -244 78 0 79 0 -1 198 c-1 208 5 245 45 270 29 19 94 17 124 -2 13
-9 26 -16 29 -16 6 0 76 124 76 133 0 4 -18 16 -39 27 -54 27 -135 33 -191 15z"/>
</g>
</svg>
