<?xml version="1.0" standalone="no"?>
<!DOCTYPE svg PUBLIC "-//W3C//DTD SVG 20010904//EN"
 "http://www.w3.org/TR/2001/REC-SVG-20010904/DTD/svg10.dtd">
<svg version="1.0" xmlns="http://www.w3.org/2000/svg"
 width="800.000000pt" height="500.000000pt" viewBox="0 0 800.000000 500.000000"
 preserveAspectRatio="xMidYMid meet">
<metadata>
Created by potrace 1.15, written by Peter Selinger 2001-2017
</metadata>
<g transform="translate(0.000000,500.000000) scale(0.100000,-0.100000)"
fill="#000000" stroke="none">
<path d="M5656 4200 c-53 -27 -82 -55 -105 -104 -49 -102 -32 -218 43 -292
109 -109 309 -90 393 38 25 38 28 50 28 133 0 84 -2 95 -30 140 -45 72 -112
105 -214 105 -55 -1 -87 -6 -115 -20z"/>
<path d="M2528 3540 c-240 -43 -418 -196 -473 -405 -22 -86 -20 -212 6 -288
26 -79 51 -119 114 -186 85 -91 181 -148 395 -236 146 -59 260 -127 316 -187
38 -41 44 -53 44 -90 0 -75 -47 -133 -135 -167 -72 -27 -157 -34 -269 -22
-122 14 -201 40 -292 97 -40 24 -74 44 -77 44 -3 0 -42 -68 -86 -151 -94 -176
-100 -152 54 -229 163 -82 222 -93 475 -94 239 -1 293 8 425 69 137 63 229
164 277 302 19 56 23 89 23 183 0 128 -15 190 -67 272 -65 103 -146 156 -439
288 -259 117 -294 135 -342 189 -42 46 -53 91 -37 149 24 93 122 146 265 145
119 0 230 -38 343 -115 24 -17 48 -26 52 -22 12 13 160 281 160 291 0 12 -93
71 -157 99 -104 46 -206 65 -373 69 -85 2 -176 0 -202 -5z"/>
<path d="M4110 3533 c-75 -13 -183 -49 -254 -85 -113 -58 -230 -175 -279 -278
-87 -183 -88 -402 -3 -575 54 -108 150 -217 232 -263 12 -7 0 -24 -59 -83 -92
-93 -113 -143 -104 -258 9 -119 22 -149 86 -211 l58 -56 -49 -34 c-114 -78
-212 -217 -239 -336 -17 -77 0 -192 40 -271 112 -223 424 -334 852 -303 328
24 545 104 699 259 81 81 119 147 145 246 17 67 19 199 4 264 -29 129 -125
242 -261 309 -151 75 -299 104 -622 122 -228 13 -296 30 -332 85 -15 23 -15
27 5 68 40 82 35 81 269 82 240 0 290 10 440 81 114 55 222 152 271 244 57
107 73 165 78 295 6 135 -10 230 -51 321 l-25 54 120 0 119 0 0 150 0 150
-348 0 c-268 0 -363 3 -417 15 -65 14 -310 19 -375 8z m330 -322 c156 -59 233
-176 234 -356 1 -83 -2 -96 -32 -158 -39 -79 -100 -133 -189 -168 -47 -19 -78
-23 -168 -23 -107 -1 -112 0 -173 33 -104 56 -164 144 -185 269 -30 181 70
354 237 414 67 24 198 19 276 -11z m-80 -1596 c257 -14 313 -24 379 -68 69
-46 99 -156 67 -241 -22 -56 -103 -134 -178 -169 -192 -91 -509 -83 -640 16
-24 18 -53 52 -66 77 -20 38 -23 56 -19 120 4 78 24 131 75 198 33 44 103 93
122 86 8 -4 125 -12 260 -19z"/>
<path d="M5560 2585 l0 -925 215 0 215 0 0 925 0 925 -215 0 -215 0 0 -925z"/>
</g>
</svg>
